<svg width="800" height="800" viewBox="0 0 800 800" fill="none" xmlns="http://www.w3.org/2000/svg">
<g clip-path="url(#clip0_387_3126)">
<path d="M293.296 62.2815L76.363 243.807L0 425.511L102.363 665.059L170.57 772.6L414.222 752.385L490.881 737.77C545.304 715.593 656.756 668.533 667.17 657.741L800.007 520.133L684.985 164.104L488.941 27" fill="#F9E9E9"/>
<path d="M151.044 434.556C383.578 473.645 289.881 460.77 307.192 696.126C297.37 718.882 177.378 657.215 151.044 651.363C143.148 639.541 145.985 586.008 147.926 567.2C152.074 526.948 150.585 474.919 151.044 434.556ZM151.044 434.556C177.207 423.178 226.555 429.133 258.748 422.452C353.311 412.741 452.822 412.933 542.044 448.867C543.652 509.319 544.333 544.082 551.104 605.978C553.792 630.541 548.185 657.163 547.267 670.83C516.185 687.333 451.481 688.156 421.644 694.4C403.978 695.356 345.059 706.37 320.718 705.17C304.652 706.319 302.533 696.311 304.415 683.83C332.807 415.104 228.289 466.689 524.57 459.193M713.592 101.119C626.674 160.637 542.326 110.548 465.578 129.363C453.481 132.326 433.281 153.015 422.978 163.333C407.785 178.541 371.437 203.141 366.874 222.896C364.8 234.57 373.607 249.459 378.844 259.63C384.252 270.126 388.23 280.645 392.541 291.504C396.726 302.074 397.185 294.4 403.659 289.519C411.8 283.378 415.474 287.585 422.007 277.496C418.644 275.696 415.548 271.208 412.941 267.333C409.281 261.911 402.355 254.97 400.918 261.045C399.97 265.052 409.696 264.919 413.378 257.096C415.533 252.526 417.067 247.193 416.274 243.067C415.341 228.252 407.215 208.652 400.896 215.608C394.578 222.563 418.815 236.778 429.585 226.385C440.607 215.756 450.415 195.415 446.111 192.733C441.807 190.052 441.652 216.163 460.533 229.245C465.785 234.845 462.533 239.4 462.711 245.63C465.067 252.059 457.881 255.622 451.681 254.8C450.252 254.8 435.207 236.467 438.267 241.215C439.97 243.859 449.637 257.141 451.318 257.089C450.222 270.941 424.8 270.696 417.37 283.03C392.807 309.711 418.378 338.111 444.578 313.111C448.911 308.97 444.452 301.022 442.178 295.911C438.978 288.711 435.378 283.711 422.978 290.511C413.622 295.645 410.852 303.178 415.378 312.711C425.348 333.696 446.252 318.645 460.467 312.37C471.378 303.933 507.4 314.519 524.274 311.185C533.089 309.445 536.674 303.896 528.726 289.852C534.267 292.111 548.096 299.17 553.978 297.37C560.992 295.222 564.215 282.593 559.104 277.141C550.007 267.445 534.296 274.319 524.148 277.348C508.741 282.793 476.044 294.696 479.118 301.03C482.192 307.371 495.341 292.171 504.37 288.304C518.333 281.096 531.37 271.882 547.4 269.963C566.704 266.341 586.37 265.245 604.681 257.452C630.281 249.637 645.185 237.748 668.178 221.852C676.133 218.711 712.8 203.348 718.963 205.6M434.652 323.489C434.652 323.489 436.933 352.711 414.267 364.822C395.178 375.022 379.504 390.104 372.037 397.793C370.444 399.43 367.755 398.985 366.652 396.985C359.496 383.978 333.326 366.008 318.792 347.067C302.2 325.445 312.163 287.726 340.829 285.208C369.496 282.696 377.392 315.111 377.392 315.111C377.392 315.111 387.555 296.348 400.778 292.208M303.318 439.437C327.141 439.437 351.118 439.067 374.852 436.896C387.926 435.704 402.311 437.77 415.052 434.8M455.674 553.763C455.948 520.682 386.689 537.8 404.585 557.467C416.059 570.074 476.726 572.496 452.778 600.726C441.148 612.808 419.548 614.171 406.096 607.43C392.718 600.726 399.963 588.126 405.392 582.993M439.089 524.808C438.141 557.585 434.881 590.526 435.741 623.378M425.185 523.467C424.237 556.245 420.978 589.185 421.837 622.037" stroke="#01385E" stroke-width="6" stroke-miterlimit="10"/>
</g>
<defs>
<clipPath id="clip0_387_3126">
<rect width="800" height="800" fill="white"/>
</clipPath>
</defs>
</svg>
